<svg width="120.000000" height="23.000000" viewBox="0 0 120 23" fill="none" xmlns="http://www.w3.org/2000/svg" xmlns:xlink="http://www.w3.org/1999/xlink">
	<desc>
			Created with Pixso.
	</desc>
	<defs/>
	<path id="Vector" d="M-0.48 8.79C-0.48 7.25 -0.11 5.83 0.65 4.52C1.42 3.22 2.45 2.19 3.76 1.43C5.06 0.66 6.49 0.28 8.03 0.28C9.6 0.28 11.05 0.69 12.39 1.51C13.72 2.31 14.75 3.38 15.48 4.71L12.77 6.15C12.29 5.32 11.63 4.65 10.79 4.15C9.94 3.63 9.02 3.37 8.03 3.37C7.05 3.37 6.14 3.61 5.29 4.1C4.46 4.59 3.8 5.25 3.31 6.08C2.82 6.91 2.58 7.82 2.58 8.79C2.58 9.77 2.82 10.67 3.31 11.5C3.8 12.33 4.46 12.99 5.29 13.48C6.14 13.97 7.05 14.21 8.03 14.21C9.05 14.21 9.98 13.95 10.81 13.44C11.66 12.92 12.32 12.22 12.79 11.36L15.5 12.85C14.78 14.2 13.75 15.28 12.41 16.1C11.08 16.9 9.61 17.3 8.03 17.3C6.49 17.3 5.06 16.92 3.76 16.17C2.45 15.4 1.42 14.36 0.65 13.06C-0.11 11.75 -0.48 10.33 -0.48 8.79ZM20.67 13.67C20.67 13.92 20.73 14.1 20.85 14.21C20.98 14.32 21.18 14.38 21.44 14.38C21.65 14.38 21.89 14.35 22.17 14.31L22.17 17C21.59 17.09 21.05 17.14 20.55 17.14C19.64 17.14 18.94 16.9 18.45 16.43C17.98 15.94 17.74 15.09 17.74 13.86L17.74 0.49L20.67 0.49L20.67 13.67ZM29.36 4.9C30.49 4.9 31.51 5.18 32.4 5.75C33.31 6.3 34.02 7.05 34.52 7.99C35.03 8.93 35.28 9.98 35.28 11.12C35.28 11.5 35.25 11.85 35.18 12.16L26.08 12.16C26.32 12.99 26.74 13.65 27.33 14.12C27.93 14.57 28.69 14.8 29.62 14.8C30.19 14.8 30.73 14.68 31.25 14.43C31.78 14.17 32.18 13.85 32.45 13.46L34.69 14.78C34.14 15.6 33.42 16.22 32.54 16.66C31.68 17.09 30.68 17.3 29.55 17.3C28.29 17.3 27.18 17.03 26.2 16.5C25.23 15.97 24.47 15.23 23.94 14.28C23.42 13.34 23.16 12.28 23.16 11.1C23.16 9.94 23.42 8.88 23.94 7.94C24.47 7 25.21 6.26 26.15 5.73C27.1 5.18 28.17 4.9 29.36 4.9ZM32.54 9.88C32.42 9.12 32.06 8.53 31.48 8.11C30.92 7.67 30.2 7.45 29.34 7.45C28.74 7.45 28.19 7.56 27.69 7.78C27.2 8 26.81 8.3 26.51 8.67C26.21 9.05 26.05 9.45 26.04 9.88L32.54 9.88ZM46.37 5.21L49.29 5.21L49.29 17L46.37 17L46.37 15.84C45.82 16.31 45.21 16.68 44.55 16.95C43.91 17.2 43.23 17.33 42.5 17.33C41.31 17.33 40.26 17.06 39.37 16.52C38.47 15.99 37.78 15.25 37.29 14.31C36.82 13.36 36.59 12.3 36.59 11.12C36.59 9.95 36.82 8.88 37.29 7.94C37.78 7 38.47 6.26 39.37 5.73C40.26 5.18 41.31 4.9 42.5 4.9C43.23 4.9 43.91 5.03 44.55 5.3C45.21 5.55 45.82 5.91 46.37 6.39L46.37 5.21ZM42.88 14.52C43.53 14.52 44.11 14.38 44.63 14.1C45.16 13.8 45.58 13.39 45.87 12.87C46.19 12.35 46.35 11.76 46.35 11.1C46.35 10.11 46.01 9.3 45.33 8.67C44.67 8.04 43.86 7.73 42.88 7.73C41.89 7.73 41.07 8.05 40.43 8.7C39.8 9.32 39.49 10.13 39.49 11.12C39.49 12.11 39.8 12.93 40.43 13.58C41.07 14.21 41.89 14.52 42.88 14.52ZM58.29 4.9C58.98 4.9 59.68 5.05 60.39 5.35C61.11 5.63 61.72 6.15 62.23 6.9C62.74 7.66 63 8.67 63 9.95L63 17L60.08 17L60.08 9.95C60.08 9.07 59.83 8.44 59.33 8.06C58.84 7.67 58.27 7.47 57.61 7.47C56.95 7.47 56.38 7.71 55.91 8.18C55.45 8.63 55.22 9.37 55.22 10.39L55.22 17L52.3 17L52.3 5.21L55.22 5.21L55.22 6.2C55.65 5.8 56.12 5.49 56.64 5.25C57.16 5.02 57.71 4.9 58.29 4.9ZM66.84 3.25C66.29 3.25 65.86 3.1 65.54 2.8C65.23 2.5 65.07 2.09 65.07 1.58C65.07 1.04 65.23 0.63 65.54 0.33C65.86 0.03 66.29 -0.12 66.84 -0.12C67.39 -0.12 67.82 0.03 68.14 0.33C68.45 0.63 68.61 1.04 68.61 1.58C68.61 2.08 68.44 2.49 68.11 2.8C67.8 3.1 67.37 3.25 66.84 3.25ZM65.36 17L65.36 5.21L68.28 5.21L68.28 17L65.36 17ZM77.19 4.9C77.88 4.9 78.58 5.05 79.29 5.35C80.01 5.63 80.62 6.15 81.13 6.9C81.65 7.66 81.91 8.67 81.91 9.95L81.91 17L78.98 17L78.98 9.95C78.98 9.07 78.73 8.44 78.23 8.06C77.74 7.67 77.17 7.47 76.51 7.47C75.85 7.47 75.28 7.71 74.81 8.18C74.35 8.63 74.13 9.37 74.13 10.39L74.13 17L71.2 17L71.2 5.21L74.13 5.21L74.13 6.2C74.55 5.8 75.02 5.49 75.54 5.25C76.06 5.02 76.61 4.9 77.19 4.9ZM93.5 5.21L96.42 5.21L96.42 16.41C96.42 17.52 96.14 18.5 95.57 19.35C95.02 20.2 94.25 20.85 93.26 21.31C92.27 21.78 91.17 22.02 89.94 22.02C88.57 22.02 87.33 21.75 86.21 21.22C85.1 20.7 84.31 20.01 83.86 19.16L86.36 17.73C86.59 18.18 87.03 18.56 87.68 18.86C88.32 19.17 89.1 19.33 90.01 19.33C91.02 19.33 91.85 19.05 92.51 18.5C93.17 17.97 93.5 17.27 93.5 16.41L93.5 15.86C92.97 16.33 92.37 16.7 91.71 16.95C91.05 17.2 90.36 17.33 89.66 17.33C88.46 17.33 87.42 17.06 86.52 16.52C85.63 15.99 84.93 15.25 84.45 14.31C83.98 13.36 83.74 12.3 83.74 11.12C83.74 9.95 83.98 8.88 84.45 7.94C84.93 7 85.63 6.26 86.52 5.73C87.42 5.18 88.46 4.9 89.66 4.9C90.36 4.9 91.04 5.03 91.68 5.3C92.34 5.55 92.95 5.91 93.5 6.36L93.5 5.21ZM90.03 14.52C90.68 14.52 91.26 14.38 91.78 14.1C92.31 13.8 92.73 13.39 93.03 12.87C93.34 12.35 93.5 11.76 93.5 11.1C93.5 10.11 93.16 9.3 92.49 8.67C91.83 8.04 91.01 7.73 90.03 7.73C89.04 7.73 88.23 8.05 87.58 8.7C86.95 9.32 86.64 10.13 86.64 11.12C86.64 12.11 86.95 12.93 87.58 13.58C88.23 14.21 89.04 14.52 90.03 14.52ZM114.07 8.72L119.42 17L115.74 17L111.92 11.08L108.1 17L104.42 17L109.78 8.72L104.45 0.49L108.13 0.49L111.92 6.36L115.72 0.49L119.4 0.49L114.07 8.72Z" fill="#211F54" fill-opacity="1.000000" fill-rule="nonzero"/>
</svg>
